HIERARCHY
ROOT Hips
{
  OFFSET 57.8543 91.8142 149.297
  CHANNELS 6 Xposition Yposition Zposition Zrotation Xrotation Yrotation
  JOINT ToSpine
  {
    OFFSET -2.69724 7.43032 -0.144315
    CHANNELS 3 Zrotation Xrotation Yrotation
    JOINT Spine
    {
      OFFSET -0.0310711 10.7595 1.96963
      CHANNELS 3 Zrotation Xrotation Yrotation
      JOINT Spine1
      {
        OFFSET 13.1342 3.43533 0.764692
        CHANNELS 3 Zrotation Xrotation Yrotation
        JOINT Neck
        {
          OFFSET 29.8703 7.82586 -0.130764
          CHANNELS 3 Zrotation Xrotation Yrotation
          JOINT Head
          {
            OFFSET 9.52751 0.295786 -0.907742
            CHANNELS 3 Zrotation Xrotation Yrotation
            End Site
            {
              OFFSET 16.4037 0.713936 2.7358
            }
          }
        }
        JOINT LeftShoulder
        {
          OFFSET 27.5574 4.95586 2.47156
          CHANNELS 3 Zrotation Xrotation Yrotation
          JOINT LeftArm
          {
            OFFSET 1.20734 -0.998971 20.1238
            CHANNELS 3 Zrotation Xrotation Yrotation
            JOINT LeftForeArm
            {
              OFFSET 26.8049 -0.0536703 -0.155908
              CHANNELS 3 Zrotation Xrotation Yrotation
              JOINT LeftHand
              {
                OFFSET 26.6817 0 0.320147
                CHANNELS 3 Zrotation Xrotation Yrotation
                End Site
                {
                  OFFSET 18.6119 0 0.382219
                }
              }
            }
          }
        }
        JOINT RightShoulder
        {
          OFFSET 27.5927 4.71444 -2.65209
          CHANNELS 3 Zrotation Xrotation Yrotation
          JOINT RightArm
          {
            OFFSET 2.83739 -1.17114 -18.7564
            CHANNELS 3 Zrotation Xrotation Yrotation
            JOINT RightForeArm
            {
              OFFSET 28.839 -0.0548439 1.22491
              CHANNELS 3 Zrotation Xrotation Yrotation
              JOINT RightHand
              {
                OFFSET 26.5114 0 -0.101894
                CHANNELS 3 Zrotation Xrotation Yrotation
                End Site
                {
                  OFFSET 18.2168 0 0
                }
              }
            }
          }
        }
      }
    }
  }
  JOINT LeftUpLeg
  {
    OFFSET -4.76168 -1.9167 -10.2353
    CHANNELS 3 Zrotation Xrotation Yrotation
    JOINT LeftLeg
    {
      OFFSET 2.55951 -42.0585 -8.02213
      CHANNELS 3 Zrotation Xrotation Yrotation
      JOINT LeftFoot
      {
        OFFSET 3.16357 -42.5282 -3.95426
        CHANNELS 3 Zrotation Xrotation Yrotation
        JOINT LeftToeBase
        {
          OFFSET 0.346054 -6.02161 12.8035
          CHANNELS 3 Zrotation Xrotation Yrotation
          End Site
          {
            OFFSET 0.134235 -1.35082 5.13018
          }
        }
      }
    }
  }
  JOINT RightUpLeg
  {
    OFFSET -4.94151 -1.41743 10.6446
    CHANNELS 3 Zrotation Xrotation Yrotation
    JOINT RightLeg
    {
      OFFSET -2.56294 -42.0364 -7.94377
      CHANNELS 3 Zrotation Xrotation Yrotation
      JOINT RightFoot
      {
        OFFSET -3.0952 -42.555 -4.02241
        CHANNELS 3 Zrotation Xrotation Yrotation
        JOINT RightToeBase
        {
          OFFSET -0.0828122 -6.13587 12.8035
          CHANNELS 3 Zrotation Xrotation Yrotation
          End Site
          {
            OFFSET -0.131328 -1.35082 5.13018
          }
        }
      }
    }
  }
}
MOTION
Frames:	20
Frame Time:	0.0333333
52.439 96.0305 136.568 60.4084 -50.3525 -20.1455 -70.1915 0 88.8779 73.1862 71.5033 5.45017 3.61968 19.7071 6.11938 -129.993 32.4763 151.321 -156.829 76.6242 -174.604 0.443562 -14.7402 -23.0695 -59.4336 38.017 -140.058 18.6003 -4.59591 -102.606 0.420957 0.000576063 0.35866 -1.37375 5.17482 41.454 -132.275 -17.4933 73.577 10.4721 6.84101 122.308 0.58676 0.000331018 0.0646652 -54.4892 4.92755 96.9167 -1.44237 34.2623 -2.05712 2.12877 -15.4151 -1.30555 2.11611 -7.24075 9.84482 -39.5142 -15.4321 79.5098 2.05643 25.4061 1.14705 -1.59217 7.29433 -0.105491 0.628371 -7.80103 3.19921 
52.3602 95.9368 136.737 60.3114 -50.5997 -20.4969 -70.1915 0 88.8779 72.6057 71.4537 5.67452 3.59206 19.4856 6.81693 -130.768 32.4754 153.153 -167.078 76.3979 -165.493 0.408716 -14.9225 -23.3154 -59.7625 37.2787 -139.796 18.3089 -4.45262 -102.419 0.420957 0.000576063 0.35866 -1.3765 5.28858 40.9175 -131.792 -18.0153 73.7434 10.9711 7.2129 122.45 0.58676 0.000331018 0.0646652 -54.5626 4.79118 96.8374 -1.51252 34.4841 -1.8379 2.05927 -15.5576 -1.31513 2.07413 -7.29662 10.4135 -38.6847 -15.6022 79.4582 1.94553 26.8815 1.8024 -1.72427 6.8355 -0.0519415 0.759664 -8.32691 2.63737 
52.4335 95.7654 136.909 60.4994 -51.3522 -20.6262 -70.1915 0 88.8779 74.827 71.3056 4.56438 3.49699 19.5951 5.56663 -130.189 31.8005 152.409 -162.619 75.9318 -169.372 0.473412 -14.6484 -22.6346 -59.3521 36.8842 -139.589 17.184 -4.36489 -103.027 0.420957 0.000576063 0.35866 -1.44327 5.41475 41.4804 -131.428 -18.0994 74.4443 11.904 7.78288 122.273 0.58676 0.000331018 0.0646652 -55.0714 4.72646 96.8739 -1.45186 34.8059 -0.920119 2.05163 -16.1766 -1.35467 2.00609 -7.04586 9.82334 -38.2568 -15.3099 79.8872 1.69508 28.2232 2.58026 -2.23537 6.02078 0.0908525 0.844501 -8.2203 1.54972 
52.3575 95.6757 137.262 60.9894 -51.3593 -20.474 -70.1915 0 88.8779 73.9909 70.9411 5.04575 4.06573 19.1833 5.71994 -130.281 31.3951 152.99 -163.325 75.4355 -168.237 0.48996 -14.56 -22.505 -59.0187 37.208 -140.153 17.3843 -4.2693 -102.584 0.420957 0.000576063 0.35866 -1.49671 5.57206 41.6324 -130.906 -18.2763 75.1177 11.3076 7.43861 122.459 0.58676 0.000331018 0.0646652 -55.6297 4.6386 96.9146 -1.52521 34.6762 -1.45098 1.93687 -16.2744 -1.36267 2.0256 -7.34508 11.001 -37.947 -15.4765 80.1455 1.53366 29.7286 2.38178 -2.85198 5.1183 0.249522 0.879077 -8.54817 1.66632 
52.3143 95.3762 137.438 60.1405 -52.4055 -21.8705 -70.1915 0 88.8779 75.5948 71.1081 4.14123 3.36833 19.4529 5.26867 -131.049 31.3276 154.284 -165.613 75.0332 -165.958 0.498437 -14.4465 -22.6606 -58.7301 37.0771 -140.364 17.424 -4.18593 -102.306 0.420957 0.000576063 0.35866 -1.52364 5.85363 40.7469 -130.596 -19.0739 74.8831 10.8319 7.21634 122.807 0.58676 0.000331018 0.0646652 -55.586 4.42859 97.3526 -1.62172 35.3714 -1.23783 1.51384 -17.1689 -1.43083 2.0895 -7.71246 12.207 -36.2603 -15.029 81.8559 1.43199 31.8902 2.47534 -3.3871 4.06075 0.392525 0.925517 -8.74081 1.44067 
52.2805 95.0422 137.666 59.3132 -53.3807 -23.0254 -70.1915 0 88.8779 76.6785 70.9709 3.546 2.99836 19.4028 4.94931 -131.344 30.8614 154.605 -164.458 74.4704 -166.693 0.537257 -14.2966 -22.1388 -58.0164 37.4002 -140.494 16.4768 -3.96388 -102.362 0.420957 0.000576063 0.35866 -1.60507 6.11015 40.9124 -130.139 -19.1606 75.2156 12.7308 8.48643 122.71 0.58676 0.000331018 0.0646652 -55.8014 4.52227 97.9512 -1.69021 35.6568 -1.10268 1.53872 -18.0772 -1.49295 2.05237 -7.90894 13.4395 -34.4772 -14.2855 83.6487 1.6772 34.3826 3.18801 -3.56226 3.04018 0.468209 1.27952 -8.67489 -2.69315 
52.2764 94.5893 137.847 57.7101 -54.552 -24.6708 -70.1915 0 88.8779 77.6141 70.9742 3.83369 2.76929 19.5635 4.59558 -132.432 30.7255 155.653 -164.131 73.981 -166.669 0.588851 -13.8052 -22.4255 -58.097 36.7878 -140.904 16.4454 -3.70047 -101.553 0.420957 0.000576063 0.35866 -1.58629 6.30621 39.771 -130.019 -20.3867 75.1973 13.1133 8.81766 122.902 0.58676 0.000331018 0.0646652 -54.8182 4.90441 98.3434 -1.84337 37.8256 -1.24851 0.678626 -19.6638 -1.64322 2.03767 -8.24008 15.2074 -31.865 -13.5118 85.0413 2.02944 37.6466 4.25337 -3.98477 3.01812 0.535022 1.62697 -9.82365 -5.71057 
52.2927 93.7656 137.917 56.1054 -56.7055 -26.7315 -70.1915 0 88.8779 83.3325 71.276 -0.820354 1.24825 19.752 4.86771 -133.821 30.7799 157.661 -164.498 73.4885 -165.906 0.475313 -14.6358 -22.6277 -58.5681 37.3672 -140.459 15.9752 -3.51346 -101.304 0.420957 0.000576063 0.35866 -1.58115 6.32955 39.5941 -128.219 -21.0511 77.1465 13.5896 9.08787 122.726 0.58676 0.000331018 0.0646652 -53.8774 5.47963 99.3872 -2.05685 41.2682 -0.944556 0.946617 -21.8605 -1.79707 1.69112 -7.98675 16.6087 -28.1633 -12.7049 86.729 2.48265 42.8536 4.30864 -2.81934 2.13225 0.399825 1.50188 -8.26871 -5.58642 
52.4371 92.4996 138.116 54.5188 -59.4721 -28.955 -70.1915 0 88.8779 88.6252 71.5267 -5.35399 0.577827 19.7852 5.78542 -135.736 30.4743 160.263 -160.503 72.4442 -168.261 0.364722 -15.3866 -22.9166 -62.7409 37.7471 -140.544 13.2122 -2.67449 -100.452 0.420957 0.000576063 0.35866 -1.5897 6.3872 39.4891 -125.077 -22.3956 80.4782 14.008 9.25267 122.375 0.58676 0.000331018 0.0646652 -53.0143 6.28905 100.655 -2.52061 46.0017 -1.03844 0.280892 -23.1412 -1.94776 3.46826 -10.871 18.143 -24.0469 -11.9743 88.2724 3.12412 48.3992 4.28568 -2.38606 0.803408 0.410193 1.50581 -8.81884 -5.15705 
52.6552 91.1418 138.55 53.2895 -61.7314 -30.849 -70.1915 0 88.8779 94.4094 71.1077 -11.0117 -0.667743 18.9846 7.50847 -138.248 29.9745 164.377 -158.976 71.0421 -168.954 0.221391 -16.4202 -23.0342 -69.6778 37.7375 -140.98 11.7661 -1.73383 -97.4916 0.420957 0.000576063 0.35866 -1.49069 6.35109 38.098 -118.606 -26.9802 84.5423 10.8645 6.99149 121.903 0.58676 0.000331018 0.0646652 -52.2017 6.58075 100.417 -3.47787 51.2362 -2.82139 0.432362 -23.8625 -1.99476 5.61527 -14.2515 22.0471 -20.785 -11.0651 90.4365 3.72567 50.5618 6.36069 -3.20493 0.261453 0.54897 1.73819 -12.1521 -4.63121 
52.7543 89.4524 139.139 52.1061 -63.5789 -32.7687 -70.1915 0 88.8779 99.5148 70.2371 -17.2311 -2.07739 17.3515 10.6897 -141.953 29.1819 169.502 -157.155 69.2785 -170.469 0.256778 -16.6666 -21.8773 -80.7276 38.9256 -140.867 11.4821 -1.06282 -94.4723 0.420957 0.000576063 0.35866 -1.44288 6.18035 38.0225 -108.935 -30.8125 88.4539 3.01745 1.90706 121.147 0.58676 0.000331018 0.0646652 -51.0536 6.54624 99.4647 -4.70108 56.8745 -3.44675 0.34704 -24.439 -2.04993 7.98233 -17.3781 23.6529 -18.0329 -10.1595 92.7641 3.40475 49.0255 5.78085 -2.32565 0.65627 0.410272 1.74781 -12.8849 -3.58677 
52.6203 87.4565 139.95 50.4635 -64.9059 -35.1236 -70.1915 0 88.8779 104.691 68.9578 -23.328 -3.60413 15.6899 13.1813 -147.015 27.8627 174.447 -158.629 67.4519 -169.273 0.533678 -15.8431 -18.4479 -94.3868 38.786 -138.472 8.44798 -0.5071 -92.6696 0.420957 0.000576063 0.35866 -1.43461 6.16643 37.9459 -98.403 -36.1719 88.8136 -10.3649 -5.57704 118.016 0.58676 0.000331018 0.0646652 -49.9349 7.18809 99.8824 -6.21934 61.9323 -3.44024 0.887324 -26.4096 -2.15498 9.00869 -18.6571 25.0339 -15.4972 -8.52844 97.0512 2.7835 46.0897 4.01331 0.192904 3.56765 -0.159664 1.72886 -10.145 -6.76782 
52.3037 85.9415 141.53 48.0127 -65.3238 -38.5215 -70.1915 0 88.8779 106.036 67.697 -25.2459 -4.41964 14.1863 14.2826 -153.187 25.9119 177.774 -157.355 65.2557 -171.796 1.00488 -11.7682 -11.2378 -109.075 40.4271 -132.034 4.26789 -0.317931 -93.4403 0.420957 0.000576063 0.35866 -1.74147 6.54813 41.127 -92.3943 -39.2974 83.1076 -24.322 -9.95609 110.808 0.58676 0.000331018 0.0646652 -50.0758 7.60008 101.291 -6.77268 63.6246 -2.76836 0.873906 -30.6152 -2.49366 7.71722 -17.0873 25.7312 -13.8001 -6.00193 104.345 2.64022 45.1124 3.86015 1.03808 8.24904 -0.693618 2.06073 -7.87349 -11.853 
51.9122 85.5784 144.406 49.8456 -62.3185 -36.8668 -70.1915 0 88.8779 100.461 66.3448 -19.7073 -2.98944 11.9201 14.9514 -160.934 23.6732 -178.557 -157.174 63.1069 -175.333 0.992057 -7.28397 -6.30982 -121.985 37.2172 -121.588 1.02033 -0.146841 -96.632 0.420957 0.000576063 0.35866 -1.84952 6.11253 44.7641 -94.0879 -40.4378 72.7168 -40.3192 -8.60512 99.815 0.58676 0.000331018 0.0646652 -50.6783 7.96723 100.444 -6.8989 62.7076 -5.41832 0.711454 -30.9071 -2.54256 8.29181 -17.7861 25.8624 -14.1201 -6.74369 108.65 3.47268 48.7452 6.72349 0.171192 11.3388 -0.757796 2.15307 -15.2426 -10.0582 
51.5788 86.3929 148.557 56.3265 -57.1421 -30.6443 -70.1915 0 88.8779 96.4783 66.1915 -15.8002 -3.2185 10.945 16.2887 -166.083 23.3845 -176.023 -152.079 62.522 177.706 0.950759 -4.75909 -6.40744 -124.7 31.7332 -116.245 -2.05268 0.3744 -100.272 0.420957 0.000576063 0.35866 -1.8286 5.72093 46.4597 -104.753 -37.6585 56.1291 -59.957 -4.14553 92.1831 0.58676 0.000331018 0.0646652 -53.7576 8.21323 98.387 -6.04116 58.2705 -9.67014 -0.110782 -27.8687 -2.39521 9.16583 -18.8545 24.5311 -18.9119 -12.466 106.255 1.59598 49.4097 -6.30884 2.45763 0.963792 -0.270785 0.517978 -12.7464 19.4941 
51.6465 89.5691 152.339 61.19 -51.148 -23.9595 -70.1915 0 88.8779 98.9892 68.1836 -12.0407 -5.89812 13.7587 14.393 -172.173 24.7042 -172.545 -146.972 63.5784 168.406 1.03557 -3.30924 -8.22763 -116.89 31.9981 -118.377 -4.06344 0.902375 -102.179 0.420957 0.000576063 0.35866 -2.14781 6.71855 46.2942 -117.155 -28.8655 40.5722 -68.8226 -5.64746 91.9742 0.58676 0.000331018 0.0646652 -56.9081 8.36112 93.3887 -3.98244 49.7909 -8.44955 -1.7372 -19.9902 -1.78872 8.97537 -18.6555 19.7453 -28.1796 -16.5066 99.7505 2.22783 42.3631 2.34538 7.26131 -0.218944 -0.777334 1.82514 -13.8643 -3.23136 
51.3076 92.9989 156.509 67.3254 -39.8022 -15.5915 -70.1915 0 88.8779 85.9928 69.3245 1.61907 -3.40633 15.275 13.9801 -173.108 26.7887 -171.297 -150.383 66.7581 172.164 1.19602 -4.08007 -11.1998 -107.293 29.4602 -124.676 -1.52602 0.313299 -101.734 0.420957 0.000576063 0.35866 -1.65275 6.39169 40.4406 -127.404 -22.8551 42.7545 -67.9805 -11.4665 94.4002 0.58676 0.000331018 0.0646652 -56.4049 8.75264 85.9143 -3.10309 44.7205 -7.17241 -4.88475 -10.2813 -0.713967 7.2125 -16.0736 14.7568 -38.7987 -21.6481 88.1133 0.527523 37.6481 -5.7107 3.85365 1.02249 -0.471841 1.38151 -14.6359 11.7629 
50.521 96.2266 159.355 72.2761 -33.0761 -10.7346 -70.1915 0 88.8779 95.574 71.1691 -6.73589 -7.00916 18.4011 11.1912 -167.347 29.0762 -173.282 -158.096 69.2121 179.334 1.2259 -5.81998 -13.0897 -100.205 24.0659 -128.417 -2.32214 0.415235 -99.7517 0.420957 0.000576063 0.35866 -0.688738 5.24194 28.2026 -138.417 -23.7851 59.082 -61.9485 -13.6645 96.9858 0.58676 0.000331018 0.0646652 -56.8584 11.5004 89.611 -2.69336 41.6087 -6.59476 -6.06297 -2.3073 0.392485 3.3351 -8.83451 7.21497 -49.3947 -22.3625 78.4814 -1.23288 31.2759 -1.33205 5.18868 2.78531 -0.873047 1.38557 -13.0945 4.32151 
49.552 98.5274 161.536 72.5931 -32.7171 -13.4024 -70.1915 0 88.8779 109.388 71.7522 -15.1461 -11.4995 23.7338 1.3213 -157.319 29.6677 -172.143 -162.192 69.149 -173.887 1.23155 -6.23701 -13.7458 -96.7652 18.1207 -121.552 -4.52131 0.931288 -101.152 0.420957 0.000576063 0.35866 -0.0574037 3.10192 19.4028 -141.611 -34.2674 94.2392 -57.5243 -5.20848 93.0991 0.58676 0.000331018 0.0646652 -58.7657 11.0912 98.6055 -2.47468 37.2549 -7.93883 -7.3303 2.43113 1.20363 1.15447 -2.81533 0.778216 -49.2274 -22.7818 78.9619 -1.78407 30.7559 3.62711 2.0298 3.94753 -0.491605 1.86726 -13.2147 -5.48083 
48.566 99.8215 163.633 71.4876 -33.4831 -15.7835 -70.1915 0 88.8779 135.502 69.5332 -35.0851 -18.9427 28.7926 -4.56156 -156.669 28.8494 -165.079 -163.788 68.2367 -171.309 1.25719 -5.98237 -14.1146 -91.9011 19.0967 -112.619 -4.23841 1.09806 -104.211 0.420957 0.000576063 0.35866 0.501678 3.90208 3.32726 -145.554 -46.0138 99.1534 -42.9256 -9.4682 99.8456 0.58676 0.000331018 0.0646652 -60.9903 9.37216 101.056 -2.37057 31.0861 -11.6262 -11.7671 4.8943 2.32327 0.409457 -1.19242 0.690452 -47.9863 -22.2458 79.5237 -1.87619 29.85 2.43613 -2.56099 4.11284 0.253594 1.6164 -12.292 -2.20969 
